<svg width="24" height="24" viewBox="0 0 24 24" fill="none" xmlns="http://www.w3.org/2000/svg">
<g clip-path="url(#clip0_99_74)">
<path d="M15.7004 7.13422L13.8504 8.20022C13.3407 7.68674 12.7014 7.32109 12.0004 7.14222V5.00022H10.0004V7.14222C9.29936 7.32109 8.66 7.68674 8.15036 8.20022L6.30036 7.13422L5.30036 8.86622L7.16136 9.93922C7.05978 10.2839 7.00561 10.6409 7.00036 11.0002C7.00561 11.3596 7.05978 11.7165 7.16136 12.0612L5.30036 13.1342L6.30036 14.8662L8.15036 13.8002C8.66 14.3137 9.29936 14.6793 10.0004 14.8582V17.0002H12.0004V14.8582C12.7014 14.6793 13.3407 14.3137 13.8504 13.8002L15.7004 14.8662L16.7004 13.1342L14.8434 12.0612C14.9436 11.7163 14.9964 11.3594 15.0004 11.0002C14.9951 10.6409 14.9409 10.2839 14.8394 9.93922L16.7004 8.86622L15.7004 7.13422ZM11.0004 13.0002C10.6048 13.0002 10.2181 12.8829 9.88922 12.6632C9.56032 12.4434 9.30398 12.131 9.1526 11.7656C9.00123 11.4001 8.96162 10.998 9.03879 10.61C9.11596 10.2221 9.30644 9.86571 9.58615 9.586C9.86585 9.3063 10.2222 9.11582 10.6102 9.03865C10.9981 8.96148 11.4003 9.00108 11.7657 9.15246C12.1312 9.30383 12.4435 9.56018 12.6633 9.88908C12.8831 10.218 13.0004 10.6047 13.0004 11.0002C13.0004 11.5307 12.7896 12.0394 12.4146 12.4144C12.0395 12.7895 11.5308 13.0002 11.0004 13.0002ZM23.2724 11.1322C22.3767 8.76861 21.2117 6.51608 19.8004 4.41922C18.628 2.83062 17.0462 1.59028 15.2238 0.830647C13.4014 0.0710174 11.407 -0.179372 9.45336 0.106217C7.5151 0.381789 5.6855 1.16966 4.15343 2.3885C2.62137 3.60734 1.44235 5.21298 0.738087 7.03968C0.033826 8.86638 -0.170157 10.8479 0.147194 12.7798C0.464545 14.7117 1.29173 16.5238 2.54336 18.0292C2.83842 18.3836 3.00011 18.8301 3.00036 19.2912V24.0002H16.0004V21.0002H18.2474C18.9743 20.9985 19.676 20.7336 20.2227 20.2546C20.7695 19.7755 21.1242 19.1146 21.2214 18.3942L21.6704 15.0002H24.0004V12.7882C24.0004 12.7882 23.4864 11.6222 23.2724 11.1322ZM19.9174 13.0002L19.2394 18.1312C19.2076 18.3718 19.0894 18.5925 18.9069 18.7524C18.7244 18.9123 18.49 19.0004 18.2474 19.0002H14.0004V22.0002H5.00036V19.2912C4.99984 18.3625 4.67437 17.4632 4.08036 16.7492C3.30607 15.8254 2.72539 14.7553 2.37283 13.6026C2.02027 12.4499 1.90302 11.238 2.02805 10.0391C2.15308 8.84021 2.51784 7.67865 3.10065 6.62349C3.68346 5.56832 4.47243 4.64108 5.42067 3.89686C6.36892 3.15264 7.45709 2.60662 8.62053 2.29126C9.78397 1.9759 10.9989 1.89762 12.1932 2.06109C13.3875 2.22456 14.5367 2.62643 15.5726 3.24282C16.6085 3.85922 17.51 4.67756 18.2234 5.64922C19.519 7.6217 20.5973 9.72864 21.4394 11.9332C21.5954 12.2902 21.7514 12.6482 21.9074 13.0022L19.9174 13.0002Z" fill="black"/>
</g>
<defs>
<clipPath id="clip0_99_74">
<rect width="24" height="24" fill="white"/>
</clipPath>
</defs>
</svg>
